REM DIRINDEX 1\2,1\3\7,1\3\8,1\4\9,1\4\10,1\4\11,1\5\12,1\5\13,1\5\14,1\6\15,1\6\16,1\6\17
REM DIRNAME "folder01","folder02","folder03","folder04","folder05","folder06","folder07","folder08","folder09","folder10","folder11","folder12","folder13","folder14","folder15","folder16","folder17"
TITLE ""
FILE "2Q_t_0753-0770.mp3" MP3
  TRACK 01 AUDIO
    TITLE "0:"
    INDEX 01 00:00:00
  TRACK 02 AUDIO
    TITLE "7:cjc174_3276"
    INDEX 01 00:00:20
  TRACK 03 AUDIO
    TITLE "0:"
    INDEX 01 00:01:67
  TRACK 04 AUDIO
    TITLE "8:cjc174_3277"
    INDEX 01 00:02:43
  TRACK 05 AUDIO
    TITLE "0:"
    INDEX 01 00:05:21
  TRACK 06 AUDIO
    TITLE "7:cjc174_3278"
    INDEX 01 00:05:66
  TRACK 07 AUDIO
    TITLE "0:"
    INDEX 01 00:07:01
  TRACK 08 AUDIO
    TITLE "8:cjc174_3279"
    INDEX 01 00:07:55
  TRACK 09 AUDIO
    TITLE "0:"
    INDEX 01 00:10:38
  TRACK 10 AUDIO
    TITLE "7:cjc174_3280"
    INDEX 01 00:11:08
  TRACK 11 AUDIO
    TITLE "0:"
    INDEX 01 00:12:51
  TRACK 12 AUDIO
    TITLE "8:cjc174_3281"
    INDEX 01 00:13:27
  TRACK 13 AUDIO
    TITLE "0:"
    INDEX 01 00:15:57
  TRACK 14 AUDIO
    TITLE "7:cjc174_3282"
    INDEX 01 00:16:25
  TRACK 15 AUDIO
    TITLE "0:"
    INDEX 01 00:17:34
  TRACK 16 AUDIO
    TITLE "8:cjc174_3283"
    INDEX 01 00:18:14
  TRACK 17 AUDIO
    TITLE "0:"
    INDEX 01 00:20:25
  TRACK 18 AUDIO
    TITLE "7:cjc174_3284"
    INDEX 01 00:20:68
  TRACK 19 AUDIO
    TITLE "0:"
    INDEX 01 00:21:65
  TRACK 20 AUDIO
    TITLE "8:cjc174_3285"
    INDEX 01 00:22:43
  TRACK 21 AUDIO
    TITLE "0:"
    INDEX 01 00:24:73
  TRACK 22 AUDIO
    TITLE "7:cjc174_3286"
    INDEX 01 00:25:46
  TRACK 23 AUDIO
    TITLE "0:"
    INDEX 01 00:26:70
  TRACK 24 AUDIO
    TITLE "8:cjc174_3287"
    INDEX 01 00:27:42
  TRACK 25 AUDIO
    TITLE "0:"
    INDEX 01 00:28:48
  TRACK 26 AUDIO
    TITLE "7:cjc174_3288"
    INDEX 01 00:29:18
  TRACK 27 AUDIO
    TITLE "0:"
    INDEX 01 00:30:54
  TRACK 28 AUDIO
    TITLE "8:cjc174_3289"
    INDEX 01 00:31:27
  TRACK 29 AUDIO
    TITLE "0:"
    INDEX 01 00:33:25
  TRACK 30 AUDIO
    TITLE "7:cjc174_3290"
    INDEX 01 00:33:69
  TRACK 31 AUDIO
    TITLE "0:"
    INDEX 01 00:34:68
  TRACK 32 AUDIO
    TITLE "8:cjc174_3291"
    INDEX 01 00:35:50
  TRACK 33 AUDIO
    TITLE "0:"
    INDEX 01 00:36:53
  TRACK 34 AUDIO
    TITLE "7:cjc174_3292"
    INDEX 01 00:37:23
  TRACK 35 AUDIO
    TITLE "0:"
    INDEX 01 00:38:44
  TRACK 36 AUDIO
    TITLE "8:cjc174_3293"
    INDEX 01 00:39:18
  TRACK 37 AUDIO
    TITLE "0:"
    INDEX 01 00:40:51
  TRACK 38 AUDIO
    TITLE "7:cjc174_3294"
    INDEX 01 00:41:21
  TRACK 39 AUDIO
    TITLE "0:"
    INDEX 01 00:42:56
  TRACK 40 AUDIO
    TITLE "8:cjc174_3295"
    INDEX 01 00:43:28
  TRACK 41 AUDIO
    TITLE "0:"
    INDEX 01 00:45:66
  TRACK 42 AUDIO
    TITLE "7:cjc174_3296"
    INDEX 01 00:46:34
  TRACK 43 AUDIO
    TITLE "0:"
    INDEX 01 00:47:33
  TRACK 44 AUDIO
    TITLE "8:cjc174_3297"
    INDEX 01 00:48:07
  TRACK 45 AUDIO
    TITLE "0:"
    INDEX 01 00:49:22
  TRACK 46 AUDIO
    TITLE "7:cjc174_3298"
    INDEX 01 00:49:70
  TRACK 47 AUDIO
    TITLE "0:"
    INDEX 01 00:51:23
  TRACK 48 AUDIO
    TITLE "8:cjc174_3299"
    INDEX 01 00:51:74
  TRACK 49 AUDIO
    TITLE "0:"
    INDEX 01 00:53:14
  TRACK 50 AUDIO
    TITLE "7:cjc174_3300"
    INDEX 01 00:53:57
  TRACK 51 AUDIO
    TITLE "0:"
    INDEX 01 00:55:03
  TRACK 52 AUDIO
    TITLE "8:cjc174_3301"
    INDEX 01 00:55:60
  TRACK 53 AUDIO
    TITLE "0:"
    INDEX 01 00:58:02
  TRACK 54 AUDIO
    TITLE "7:cjc174_3302"
    INDEX 01 00:58:47
  TRACK 55 AUDIO
    TITLE "0:"
    INDEX 01 00:59:46
  TRACK 56 AUDIO
    TITLE "8:cjc174_3303"
    INDEX 01 01:00:20
  TRACK 57 AUDIO
    TITLE "0:"
    INDEX 01 01:01:22
  TRACK 58 AUDIO
    TITLE "7:cjc174_3304"
    INDEX 01 01:01:67
  TRACK 59 AUDIO
    TITLE "0:"
    INDEX 01 01:03:05
  TRACK 60 AUDIO
    TITLE "8:cjc174_3305"
    INDEX 01 01:03:58
  TRACK 61 AUDIO
    TITLE "0:"
    INDEX 01 01:06:66
  TRACK 62 AUDIO
    TITLE "7:cjc174_3306"
    INDEX 01 01:07:34
  TRACK 63 AUDIO
    TITLE "0:"
    INDEX 01 01:08:51
  TRACK 64 AUDIO
    TITLE "8:cjc174_3307"
    INDEX 01 01:09:21
  TRACK 65 AUDIO
    TITLE "0:"
    INDEX 01 01:13:09
  TRACK 66 AUDIO
    TITLE "7:cjc174_3308"
    INDEX 01 01:13:54
  TRACK 67 AUDIO
    TITLE "0:"
    INDEX 01 01:14:75
  TRACK 68 AUDIO
    TITLE "8:cjc174_3309"
    INDEX 01 01:15:63
  TRACK 69 AUDIO
    TITLE "0:"
    INDEX 01 01:17:17
  TRACK 70 AUDIO
    TITLE "7:cjc174_3310"
    INDEX 01 01:17:62
  TRACK 71 AUDIO
    TITLE "0:"
    INDEX 01 01:19:35
  TRACK 72 AUDIO
    TITLE "8:cjc174_3311"
    INDEX 01 01:20:11
  TRACK 73 AUDIO
    TITLE "0:"
    INDEX 01 01:21:54
